<svg width="15" height="7" viewBox="0 0 15 7" fill="none" xmlns="http://www.w3.org/2000/svg">
<path fill-rule="evenodd" clip-rule="evenodd" d="M0.169473 0.146856C0.223058 0.100305 0.286715 0.0633711 0.356797 0.0381711C0.426879 0.0129711 0.50201 0 0.577887 0C0.653763 0 0.728894 0.0129711 0.798977 0.0381711C0.869059 0.0633711 0.932715 0.100305 0.9863 0.146856L7.50015 5.79242L14.014 0.146856C14.0676 0.10038 14.1313 0.063513 14.2014 0.0383603C14.2715 0.0132077 14.3466 0.000261717 14.4224 0.000261717C14.4983 0.000261717 14.5734 0.0132077 14.6434 0.0383603C14.7135 0.063513 14.7772 0.10038 14.8308 0.146856C14.8845 0.193332 14.927 0.248507 14.956 0.309231C14.9851 0.369955 15 0.435039 15 0.500766C15 0.566493 14.9851 0.631577 14.956 0.6923C14.927 0.753024 14.8845 0.808199 14.8308 0.854675L7.90857 6.85314C7.85498 6.8997 7.79132 6.93663 7.72124 6.96183C7.65116 6.98703 7.57603 7 7.50015 7C7.42427 7 7.34914 6.98703 7.27906 6.96183C7.20898 6.93663 7.14532 6.8997 7.09174 6.85314L0.169473 0.854675C0.115753 0.808242 0.0731311 0.75308 0.0440502 0.692351C0.0149692 0.631621 0 0.566516 0 0.500766C0 0.435015 0.0149692 0.369911 0.0440502 0.309181C0.0731311 0.248451 0.115753 0.19329 0.169473 0.146856Z" fill="white" fill-opacity="0.7"/>
</svg>
